<svg id="apbml" xmlns="http://www.w3.org/2000/svg" xmlns:xlink="http://www.w3.org/1999/xlink" width="324.939" height="115.006" viewBox="0 0 324.939 115.006">
  <defs>
    <linearGradient id="linear-gradient" x1="-56.933" y1="2066.774" x2="-55.932" y2="2066.774" gradientUnits="objectBoundingBox">
      <stop offset="0" stop-color="#00973d"/>
      <stop offset="1" stop-color="#006027"/>
    </linearGradient>
    <linearGradient id="linear-gradient-2" x1="-33.117" y1="517.684" x2="-32.118" y2="517.684" xlink:href="#linear-gradient"/>
    <linearGradient id="linear-gradient-3" x1="-35.652" y1="261.378" x2="-34.652" y2="261.378" xlink:href="#linear-gradient"/>
    <linearGradient id="linear-gradient-4" x1="-24.881" y1="395.331" x2="-23.881" y2="395.331" xlink:href="#linear-gradient"/>
    <linearGradient id="linear-gradient-5" x1="-22.899" y1="577.643" x2="-21.899" y2="577.643" xlink:href="#linear-gradient"/>
    <linearGradient id="linear-gradient-6" x1="-36.219" y1="517.958" x2="-35.219" y2="517.958" xlink:href="#linear-gradient"/>
  </defs>
  <g id="Group_102" data-name="Group 102">
    <g id="Group_99" data-name="Group 99" transform="translate(134.788 10.524)">
      <g id="Group_98" data-name="Group 98">
        <g id="Group_97" data-name="Group 97">
          <g id="Group_96" data-name="Group 96">
            <path id="Path_470" data-name="Path 470" d="M260.641,185.546h11.037l3.012,9.884h9.05l-11.725-37.982H260.641l-11.56,37.982h9.044Zm5.416-21.418,4.125,15.055h-8.2Z" transform="translate(-249.081 -157.359)" fill="#1a1818"/>
            <path id="Path_471" data-name="Path 471" d="M263.746,183.089l2.916-3.7,9.524,16.124h9.782l-12.95-21.937,12.562-16.138H274.8l-10.907,16.39V157.454l-8.864-.019v38.074h8.722Z" transform="translate(-215.676 -157.435)" fill="#1a1818"/>
            <rect id="Rectangle_12" data-name="Rectangle 12" width="8.47" height="37.809" transform="translate(73.868)" fill="#1a1818"/>
            <path id="Path_472" data-name="Path 472" d="M282.13,182.825v-25.39h-9s.271,14.016.271,24.324-10.05,6.071-10.05,6.071a30.217,30.217,0,0,1-1.317,7.144C280.825,200.27,282.13,185.725,282.13,182.825Z" transform="translate(-176.266 -157.432)" fill="#1a1818"/>
            <path id="Path_473" data-name="Path 473" d="M249.252,164.965V186.1H254.2v-7.8c3.814,0,0-.033,4.641-.033.814,0,5.568-1.754,5.462-6.594,0-2.37-1.542-6.607-5.356-6.713Zm10.4,6.806c-.3,3.933-5.661,2.993-5.661,2.993V168.58C258.839,168.58,259.653,169.1,259.653,171.771Z" transform="translate(-248.12 -115.109)" fill="#1a1818"/>
            <path id="Path_474" data-name="Path 474" d="M265.141,181.278V169.9c-1.946-7.044-12.347-2.9-12.347-2.9l.788,3.085c5.025-1.933,6.8-.794,6.971,1.145-7.673-1.331-10.931,5.727-7.408,9.07,4.019,3.251,7.945-.53,7.945-.53v1.51Zm-8.514-3.615c-1.059-3.37,2.642-3.562,4.032-3.562C261.652,177.4,257.958,179.914,256.627,177.663Z" transform="translate(-234.203 -110.495)" fill="#1a1818"/>
            <path id="Path_475" data-name="Path 475" d="M284.662,181.278V169.9c-1.953-7.044-12.347-2.9-12.347-2.9l.788,3.085c5.025-1.933,6.8-.794,6.971,1.145-7.673-1.331-10.937,5.727-7.4,9.07,3.986,3.251,7.932-.53,7.932-.53v1.51Zm-8.521-3.615c-1.066-3.37,2.648-3.562,4.038-3.562C281.173,177.4,277.459,179.914,276.141,177.663Z" transform="translate(-124.49 -110.495)" fill="#1a1818"/>
            <path id="Path_476" data-name="Path 476" d="M263.854,165.947s-3.151-1.192-5.33,2.635v-2.443H254.3V181.38h4.727v-9.057a4.165,4.165,0,0,1,4.826-1.867Z" transform="translate(-219.747 -110.577)" fill="#1a1818"/>
            <path id="Path_477" data-name="Path 477" d="M278.078,168.582v-2.443h-4.23V181.38h4.727v-9.057a4.131,4.131,0,0,1,4.8-1.867v-4.509S280.236,164.755,278.078,168.582Z" transform="translate(-109.882 -110.577)" fill="#1a1818"/>
            <path id="Path_478" data-name="Path 478" d="M266.171,172.77v-3.522h-3.33V165.2l-4.628,1.172v2.94l-2.264.02v3.476h2.165v8.322s0,5.3,7.965,3.529v-3.827s-3.542,1.079-3.542-1.966v-6.1Z" transform="translate(-210.479 -113.772)" fill="#1a1818"/>
            <path id="Path_479" data-name="Path 479" d="M275.42,170.2l-4.608,1.192v2.92l-2.251.02v3.482h2.158v8.315s0,5.316,7.965,3.529v-3.813s-3.542,1.059-3.542-1.98v-6.1h3.635v-3.529H275.42Z" transform="translate(-139.592 -85.658)" fill="#1a1818"/>
            <rect id="Rectangle_13" data-name="Rectangle 13" width="4.907" height="15.077" transform="translate(58.118 55.525)" fill="#1a1818"/>
            <ellipse id="Ellipse_1" data-name="Ellipse 1" cx="2.515" cy="2.515" rx="2.515" ry="2.515" transform="translate(57.995 48.794)" fill="#1a1818"/>
            <rect id="Rectangle_14" data-name="Rectangle 14" width="4.894" height="15.077" transform="translate(27.175 88.466)" fill="#1a1818"/>
            <path id="Path_480" data-name="Path 480" d="M255.694,169.779a2.509,2.509,0,1,0,2.5,2.5A2.519,2.519,0,0,0,255.694,169.779Z" transform="translate(-226.127 -88.052)" fill="#1a1818"/>
            <rect id="Rectangle_15" data-name="Rectangle 15" width="4.887" height="15.077" transform="translate(87.833 88.466)" fill="#1a1818"/>
            <path id="Path_481" data-name="Path 481" d="M264.825,169.779a2.509,2.509,0,1,0,2.516,2.5A2.5,2.5,0,0,0,264.825,169.779Z" transform="translate(-174.619 -88.052)" fill="#1a1818"/>
            <rect id="Rectangle_16" data-name="Rectangle 16" width="4.888" height="15.077" transform="translate(122.339 88.466)" fill="#1a1818"/>
            <path id="Path_482" data-name="Path 482" d="M270.061,169.779a2.509,2.509,0,1,0,2.509,2.5A2.513,2.513,0,0,0,270.061,169.779Z" transform="translate(-145.342 -88.052)" fill="#1a1818"/>
            <path id="Path_483" data-name="Path 483" d="M278.194,172.33a2.526,2.526,0,1,0,2.509,2.516A2.523,2.523,0,0,0,278.194,172.33Z" transform="translate(-99.59 -73.714)" fill="#1a1818"/>
            <path id="Path_484" data-name="Path 484" d="M270.985,181.068c-.5-2.469-.808-3.456-.808-3.456s-8.4,2.906-6.362-5.952c1.662-3.277,6.236-1.563,6.236-1.563l.934-3.7c-1.569-1.132-13.566-2.271-11.712,10.282C259.922,180.393,264.874,183.352,270.985,181.068Z" transform="translate(-192.888 -110.729)" fill="#1a1818"/>
            <rect id="Rectangle_17" data-name="Rectangle 17" width="4.843" height="22.306" transform="translate(80.391 48.561)" fill="#1a1818"/>
            <rect id="Rectangle_18" data-name="Rectangle 18" width="4.836" height="22.286" transform="translate(35.78 81.554)" fill="#1a1818"/>
            <rect id="Rectangle_19" data-name="Rectangle 19" width="4.856" height="22.286" transform="translate(43.946 81.554)" fill="#1a1818"/>
            <path id="Path_485" data-name="Path 485" d="M286.479,164.77v8.309a6.307,6.307,0,0,0-4.184-1.648c-3.78,0-6.826,3.529-6.826,7.885s3.045,7.885,6.826,7.885a6.2,6.2,0,0,0,4.184-1.668v1.543h4.436v-22.3Zm-3.323,18.8c-1.755,0-3.191-1.913-3.191-4.25s1.436-4.237,3.191-4.237,3.184,1.913,3.184,4.237S284.923,183.566,283.156,183.566Z" transform="translate(-100.765 -116.205)" fill="#1a1818"/>
            <path id="Path_486" data-name="Path 486" d="M266.8,166.354c-4.866,1.966-5.912,9.534-2.231,13.433,2.172,2.3,6.753,2.555,11.513,1.364-.232-1.509-.649-3.741-.649-3.741s-7.316,2.483-8.348-2.032H276.9C277.627,169.816,274.582,163.844,266.8,166.354Zm5.621,5.786h-5.455c.1-.43-.523-3.284,2.655-3.284S272.423,172.14,272.423,172.14Z" transform="translate(-174.419 -110.619)" fill="#1a1818"/>
            <path id="Path_487" data-name="Path 487" d="M274.869,171.352c-4.866,1.986-5.925,9.534-2.238,13.453,2.172,2.278,6.74,2.549,11.507,1.364-.212-1.509-.636-3.741-.636-3.741s-7.316,2.476-8.348-2.052h9.818C285.687,174.808,282.648,168.856,274.869,171.352Zm5.621,5.78h-5.455c.119-.424-.53-3.3,2.642-3.3S280.489,177.132,280.489,177.132Z" transform="translate(-129.123 -82.501)" fill="#1a1818"/>
            <path id="Path_488" data-name="Path 488" d="M277.376,174.669c3.933-1.417,5.76-8.507-2.284-9.693h-9.163l-.02.318v20.623h9.567C281.289,185.917,284.017,176.6,277.376,174.669Zm-6.7-6.561c.437,0,5.019-.417,5.455,1.953.444,4.145-5.455,3.085-5.455,3.085Zm0,13.983v-5.667c.464,0,5.264-.5,5.727,2.192C276.86,183.275,270.676,182.09,270.676,182.09Z" transform="translate(-154.498 -115.048)" fill="#1a1818"/>
            <path id="Path_489" data-name="Path 489" d="M276.678,181.546a7.888,7.888,0,1,0-8.11-7.885A7.991,7.991,0,0,0,276.678,181.546Zm0-12.685c1.735,0,3.152,2.158,3.152,4.8s-1.417,4.8-3.152,4.8-3.158-2.145-3.158-4.8S274.937,168.861,276.678,168.861Z" transform="translate(-139.553 -110.551)" fill="#1a1818"/>
            <path id="Path_490" data-name="Path 490" d="M283.857,178.083a6.334,6.334,0,0,0-4.2-1.668c-3.767,0-6.833,3.555-6.833,7.912,0,4.336,3.065,7.858,6.833,7.858a6.169,6.169,0,0,0,4.2-1.662v1.543h4.449V169.774h-4.449Zm-3.343,10.474c-1.748,0-3.184-1.9-3.184-4.23s1.437-4.257,3.184-4.257c1.788,0,3.211,1.913,3.211,4.257S282.3,188.557,280.513,188.557Z" transform="translate(-115.615 -88.08)" fill="#1a1818"/>
            <path id="Path_491" data-name="Path 491" d="M265.128,169.94,260.7,184.52,256.978,170.1h-6.272l-1.525,20.877h4.413l1.186-16.125,3.73,15.77h4.067l4.429-15.95.833,16.461h4.409l-1.2-21.187Z" transform="translate(-248.521 -87.145)" fill="#1a1818"/>
            <path id="Path_492" data-name="Path 492" d="M264.507,177.112c-4.29-.98-3.972-4.734,2.278-2.377l.973-2.814s-7.018-3.635-9.9,1.98c-.523,1.172-1.92,4.535,4.925,6.773,1.728.331,2.192,4.674-4.859,1.185l-1.026,3.489s9.037,4.356,11.387-2.695C268.659,180.422,268.209,178.012,264.507,177.112Z" transform="translate(-205.167 -82.514)" fill="#1a1818"/>
            <path id="Path_493" data-name="Path 493" d="M264.722,169.9l-4.746.012v21.155H273.1V187.3h-8.379Z" transform="translate(-187.841 -87.37)" fill="#1a1818"/>
            <path id="Path_494" data-name="Path 494" d="M276.461,173.626c-2.059-4.595-7.362-3-8.739,0v-2.761h-4.138V186.5h4.833s.119-8.117.119-9.441c.622-3.615,4.489-2.655,4.489-.741v10.01h4.628v-9.388c.49-3.88,4.641-2.483,4.535-.238v9.52h4.4V176.85C285.9,167.422,278.308,171.322,276.461,173.626Z" transform="translate(-167.566 -82.61)" fill="#1a1818"/>
          </g>
        </g>
      </g>
    </g>
    <g id="Group_101" data-name="Group 101">
      <path id="Path_495" data-name="Path 495" d="M276.682,163.971l-7.3-4.118-40.657,83.969s6.607,3.3,7.4,4.092C237.845,244.477,276.682,163.971,276.682,163.971Z" transform="translate(-228.722 -133.318)" fill="#76187e"/>
      <path id="Path_496" data-name="Path 496" d="M266.094,161.134l7.673,3.933,1.841-5.813,7.945,3.317-28.826,89.12s-6-3.191-7.845-3.191L272.3,169.708l-33.56,81.837s-4.78-3.171-7.686-3.946C232.64,243.488,266.094,161.134,266.094,161.134Z" transform="translate(-215.592 -136.684)" fill="#76187e"/>
      <path id="Path_497" data-name="Path 497" d="M287.694,258.378,255.319,155.845H237.7l37.128,114.6h17.134Z" transform="translate(-178.249 -155.845)" fill="#006027"/>
      <path id="Path_498" data-name="Path 498" d="M309.617,188a44.26,44.26,0,0,0-3.84-6.991,1.267,1.267,0,0,1-.165-.252c-24.086-31.732-69.894-10.295-70.3-10.03l-2.324,1.49,2.589.867c5.244,1.827,13.288,6.892,20.392,11.321a131.5,131.5,0,0,0,12.5,7.349c17.981,7.852,33.811.907,39.022-1.377.569-.251,1.1-.477,1.284-.543l1.516-.43Z" transform="translate(-204.733 -113.361)" fill="#fff"/>
      <path id="Path_499" data-name="Path 499" d="M233.448,170.654c1.966-1.245,45.848-20.146,68.536,9.726,0,2.5,1.973,4.376,3.443,5.33,1.456.927.41,1.668.41,1.668-2.191.622-19.537,10.653-39.379,1.986C259.361,186.126,242.518,173.785,233.448,170.654Z" transform="translate(-202.159 -112.168)" fill="#89bb2a"/>
      <path id="Path_500" data-name="Path 500" d="M245.312,165.411a97.013,97.013,0,0,0-9.865-1.251c3.721-.417,9.957.814,10.593,1.251Z" transform="translate(-190.924 -109.587)" fill="url(#linear-gradient)"/>
      <path id="Path_501" data-name="Path 501" d="M255.266,168.389c-5.429-3.774-14.34-4.694-18.187-4.628,2.059.391,13.1,1.788,17.26,4.893C255.524,169.786,255.266,168.389,255.266,168.389Z" transform="translate(-181.751 -111.372)" fill="url(#linear-gradient-2)"/>
      <path id="Path_502" data-name="Path 502" d="M256.584,174.246c-1.6-4.178-11.553-8.428-16.916-10.507,1.3.8,12.91,5.925,15.611,9.838C256.239,174.656,256.584,174.246,256.584,174.246Z" transform="translate(-167.199 -111.476)" fill="url(#linear-gradient-3)"/>
      <path id="Path_503" data-name="Path 503" d="M263.565,166.343c-2.549,2.026-11.374,6.965-24.238,6.521,8.9-1.046,19.306-3.257,23.536-6.965Z" transform="translate(-169.116 -99.336)" fill="url(#linear-gradient-4)"/>
      <path id="Path_504" data-name="Path 504" d="M237.49,169.957c3.343.086,19.65-1.145,26.337-4.76C262.258,164.839,251.334,169.513,237.49,169.957Z" transform="translate(-179.441 -103.393)" fill="url(#linear-gradient-5)"/>
      <path id="Path_505" data-name="Path 505" d="M253.123,164.89c-2.383,1.45-7.667,4.376-16.651,4.886,7.653-1.986,10.566-1.986,15.989-5.151C253.123,164.089,253.123,164.89,253.123,164.89Z" transform="translate(-185.162 -107.536)" fill="url(#linear-gradient-6)"/>
      <g id="Group_100" data-name="Group 100" transform="translate(33.58 55.776)">
        <path id="Path_506" data-name="Path 506" d="M293.975,172.892c-24.026-13.764-55.487-7.157-60.181-6.21,10.791-1.649,21.927-2.178,31.865-.854,19.954,2.695,36.029,11.705,41.246,25.886l.06.126c.331,1.126,2.516,8.468-1.529,9.494l3.251,10.129.973-.437c1.781-2.714,1.562-5.76,2.138-11.414C313.261,184.18,298.384,175.825,293.975,172.892Z" transform="translate(-233.794 -164.27)" fill="#006027"/>
        <path id="Path_507" data-name="Path 507" d="M245.253,171.332c.775,2.476,4.27,12.063,4.27,12.063Z" transform="translate(-169.388 -124.575)" fill="#006027"/>
      </g>
    </g>
  </g>
</svg>
